<mxfile host="app.diagrams.net" modified="2023-05-28T22:18:33.381Z" agent="Mozilla/5.0 (X11; Ubuntu; Linux x86_64; rv:109.0) Gecko/20100101 Firefox/113.0" version="21.3.5" etag="4sEMsMciSPYLRDj1yVDQ" type="github">
  <diagram name="PÃ¡gina-1" id="bxe_Why2q6wOMPZuDqKp">
    <mxGraphModel>
      <root>
        <mxCell id="0" />
        <mxCell id="1" parent="0" />
      </root>
    </mxGraphModel>
  </diagram>
</mxfile>
